<svg width="100" height="100" viewBox="0 0 100 100" fill="none" xmlns="http://www.w3.org/2000/svg">
<path fill-rule="evenodd" clip-rule="evenodd" d="M50 100C77.6142 100 100 77.6142 100 50C100 22.3858 77.6142 0 50 0C22.3858 0 0 22.3858 0 50C0 77.6142 22.3858 100 50 100ZM76.1211 41L68.2425 33.1214L52.1213 49.2427L40.1213 37.2427L23.2426 54.1213L19 49.8787L40.1213 28.7574L52.1213 40.7574L63.9999 28.8788L56.1211 21L79.1211 18L76.1211 41ZM19.6211 67.5H31.6211V82.5H19.6211V67.5ZM47.6211 53.5H35.6211V82.5H47.6211V53.5ZM51.6211 60.5H63.6211V82.5H51.6211V60.5ZM79.6211 46.5H67.6211V82.5H79.6211V46.5Z" fill="#288186"/>
</svg>
