<svg width="100" height="100" viewBox="0 0 100 100" fill="none" xmlns="http://www.w3.org/2000/svg">
<path d="M2.34515 4.34287C0.551616 6.13641 0.551616 37.998 2.34515 39.7916C4.13869 41.5851 36.0003 41.5851 37.7938 39.7916C39.5874 37.998 39.5874 6.13641 37.7938 4.34287C36.0003 2.54934 4.13869 2.54934 2.34515 4.34287Z" fill="#288186"/>
<path d="M17.959 47.39C17.959 48.7615 18.6975 49.5 20.069 49.5C21.4406 49.5 22.1791 48.7615 22.1791 47.39C22.1791 46.0184 21.4406 45.2799 20.069 45.2799C18.6975 45.2799 17.959 46.0184 17.959 47.39Z" fill="#288186"/>
<path d="M17.959 55.8314C17.959 57.2029 18.6975 57.9414 20.069 57.9414C21.4406 57.9414 22.1791 57.2029 22.1791 55.8314C22.1791 54.4598 21.4406 53.7213 20.069 53.7213C18.6975 53.7213 17.959 54.4598 17.959 55.8314Z" fill="#288186"/>
<path d="M61.4272 59.2062C59.6336 60.9997 59.6336 92.8613 61.4272 94.6548C63.2207 96.4484 95.0823 96.4484 96.8759 94.6548C98.6694 92.8613 98.6694 60.9997 96.8759 59.2062C95.0823 57.4126 63.2207 57.4126 61.4272 59.2062Z" fill="#288186"/>
<path d="M17.959 64.2689C17.959 65.6404 18.6975 66.3789 20.069 66.3789C21.4406 66.3789 22.1791 65.6404 22.1791 64.2689C22.1791 62.8973 21.4406 62.1588 20.069 62.1588C18.6975 62.1588 17.959 62.8973 17.959 64.2689Z" fill="#288186"/>
<path d="M17.959 72.7103C17.959 74.0818 18.6975 74.8203 20.069 74.8203C21.4406 74.8203 22.1791 74.0818 22.1791 72.7103C22.1791 71.3387 21.4406 70.6002 20.069 70.6002C18.6975 70.6002 17.959 71.3387 17.959 72.7103Z" fill="#288186"/>
<path d="M17.959 81.1556C17.959 82.5271 18.6975 83.2656 20.069 83.2656C21.4406 83.2656 22.1791 82.5271 22.1791 81.1556C22.1791 79.7841 21.4406 79.0455 20.069 79.0455C18.6975 79.0455 17.959 79.7841 17.959 81.1556Z" fill="#288186"/>
<path d="M26.3984 81.1556C26.3984 82.5271 27.137 83.2656 28.5085 83.2656C29.88 83.2656 30.6185 82.5271 30.6185 81.1556C30.6185 79.7841 29.88 79.0455 28.5085 79.0455C27.137 79.0455 26.3984 79.7841 26.3984 81.1556Z" fill="#288186"/>
<path d="M34.8398 81.1556C34.8398 82.5271 35.5784 83.2656 36.9499 83.2656C38.3214 83.2656 39.0599 82.5271 39.0599 81.1556C39.0599 79.7841 38.3214 79.0455 36.9499 79.0455C35.5784 79.0455 34.8398 79.7841 34.8398 81.1556Z" fill="#288186"/>
<path d="M43.2793 81.1556C43.2793 82.5271 44.0178 83.2656 45.3893 83.2656C46.7609 83.2656 47.4994 82.5271 47.4994 81.1556C47.4994 79.7841 46.7609 79.0455 45.3893 79.0455C44.0178 79.0455 43.2793 79.7841 43.2793 81.1556Z" fill="#288186"/>
<path d="M51.7207 81.1556C51.7207 82.5271 52.4592 83.2656 53.8307 83.2656C55.2023 83.2656 55.9408 82.5271 55.9408 81.1556C55.9408 79.7841 55.2023 79.0455 53.8307 79.0455C52.4592 79.0455 51.7207 79.7841 51.7207 81.1556Z" fill="#288186"/>
</svg>
