<svg width="90" height="100" viewBox="0 0 90 100" fill="none" xmlns="http://www.w3.org/2000/svg">
<path fill-rule="evenodd" clip-rule="evenodd" d="M41.4756 0.125178C39.9935 0.413369 36.8645 2.26602 35.3412 3.70697C34.6002 4.40686 33.4474 6.05366 32.7887 7.41227C31.1419 10.6647 31.0596 15.1111 32.5417 18.487C35.5471 25.2801 43.6164 28.3678 50.2448 25.2389C55.1852 22.9334 57.9024 18.6105 57.9024 13.0526C57.9024 10.3353 57.7377 9.47078 56.6673 7.41227C54.3618 2.76006 50.533 0.248688 45.5514 0.0428382C43.8634 -0.0395019 42.0108 0.00166814 41.4756 0.125178ZM11.0992 52.1913C12.6224 50.7504 15.7514 48.8977 17.2335 48.6096C17.7687 48.486 19.6214 48.4449 21.3093 48.5272C26.2909 48.7331 30.1197 51.2444 32.4252 55.8966C33.4957 57.9552 33.6603 58.8197 33.6603 61.5369C33.6603 67.0949 30.9431 71.4178 26.0027 73.7233C19.3743 76.8522 11.305 73.7644 8.29959 66.9714C6.81747 63.5954 6.89981 59.1491 8.54661 55.8966C9.20533 54.538 10.3581 52.8912 11.0992 52.1913ZM0.436163 88.6273C1.63009 82.8635 3.77094 79.2817 8.34081 75.6176C10.0288 74.259 10.6052 74.012 10.6052 74.5883C10.6052 75.2471 15.2162 77.2232 17.8099 77.6349C19.7449 77.9643 21.2682 77.9643 23.2032 77.6349C25.7557 77.2232 29.8316 75.4941 30.4491 74.5472C30.6138 74.3002 31.4372 74.6707 32.5076 75.5353C37.1187 79.1582 39.3419 82.7812 40.5358 88.6273C41.1533 91.7974 41.1533 91.9621 40.2888 93.6912C39.0125 96.3261 36.707 97.6436 30.1609 99.4139C27.3202 100.196 13.6517 100.196 10.811 99.4139C4.26498 97.6436 1.95945 96.3261 0.683183 93.6912C-0.181387 91.9621 -0.181387 91.7974 0.436163 88.6273ZM65.2847 48.6096C63.8026 48.8977 60.6737 50.7504 59.1504 52.1913C58.4093 52.8912 57.2566 54.538 56.5978 55.8966C54.951 59.1491 54.8687 63.5954 56.3508 66.9714C59.3562 73.7644 67.4256 76.8522 74.0539 73.7233C78.9943 71.4178 81.7116 67.0949 81.7116 61.5369C81.7116 58.8197 81.5469 57.9552 80.4765 55.8966C78.1709 51.2444 74.3421 48.7331 69.3605 48.5272C67.6726 48.4449 65.8199 48.486 65.2847 48.6096ZM48.4874 88.6273C49.6813 82.8635 51.8222 79.2817 56.392 75.6176C58.08 74.259 58.6564 74.012 58.6564 74.5883C58.6564 75.2471 63.2674 77.2232 65.8612 77.6349C67.7962 77.9643 69.3194 77.9643 71.2544 77.6349C73.807 77.2232 77.8828 75.4941 78.5004 74.5472C78.665 74.3002 79.4884 74.6707 80.5589 75.5353C85.1699 79.1582 87.3931 82.7812 88.587 88.6273C89.2046 91.7974 89.2046 91.9621 88.34 93.6912C87.0637 96.3261 84.7582 97.6436 78.2122 99.4139C75.3714 100.196 61.703 100.196 58.8623 99.4139C52.3162 97.6436 50.0107 96.3261 48.7344 93.6912C47.8699 91.9621 47.8699 91.7974 48.4874 88.6273ZM24.6783 40.143C25.8722 34.3792 28.013 30.7974 32.5829 27.1332C34.2709 25.7746 34.8473 25.5276 34.8473 26.104C34.8473 26.7627 39.4583 28.7389 42.052 29.1506C43.987 29.4799 45.5103 29.4799 47.4453 29.1506C49.9978 28.7389 54.0737 27.0097 54.6912 26.0628C54.8559 25.8158 55.6793 26.1863 56.7497 27.0509C61.3608 30.6738 63.5839 34.2968 64.7779 40.143C65.3954 43.3131 65.3954 43.4777 64.5309 45.2069C63.2546 47.8418 60.9491 49.1592 54.403 50.9295C51.5623 51.7117 37.8938 51.7117 35.0531 50.9295C28.5071 49.1592 26.2016 47.8418 24.9253 45.2069C24.0607 43.4777 24.0607 43.3131 24.6783 40.143Z" fill="#288186"/>
</svg>
