<svg width="80" height="100" viewBox="0 0 80 100" fill="none" xmlns="http://www.w3.org/2000/svg">
<path d="M33.4525 0.242859C30.5755 0.802277 24.5019 4.39853 21.5449 7.19562C20.1064 8.55421 17.8688 11.7509 16.5901 14.3881C13.3934 20.7016 13.2336 29.3326 16.1106 35.8858C21.9445 49.072 37.6082 55.0658 50.4748 48.9921C60.0648 44.5168 65.3394 36.1255 65.3394 25.3367C65.3394 20.0622 65.0197 18.384 62.9418 14.3881C58.4665 5.35753 51.0342 0.482609 41.3643 0.0830231C38.0877 -0.0768089 34.4915 0.00310898 33.4525 0.242859Z" fill="#288186"/>
<path d="M16.1907 52.6693C7.31992 59.7819 3.16424 66.7346 0.846654 77.923C-0.352098 84.0766 -0.352098 84.3962 1.32616 87.7527C3.80358 92.8674 8.27892 95.4248 20.9857 98.8612C26.5 100.38 53.0323 100.38 58.5466 98.8612C71.2534 95.4248 75.7287 92.8674 78.2061 87.7527C79.8844 84.3962 79.8844 84.0766 78.6857 77.923C76.3681 66.5748 72.0526 59.5421 63.1019 52.5094C61.024 50.8312 59.4257 50.1119 59.106 50.5914C57.9073 52.4295 49.9955 55.786 45.0407 56.5852C41.2846 57.2245 38.3276 57.2245 34.5716 56.5852C29.5368 55.786 20.5861 51.95 20.5861 50.6713C20.5861 49.5525 19.4673 50.032 16.1907 52.6693Z" fill="#288186"/>
</svg>
