<svg width="100" height="100" viewBox="0 0 100 100" fill="none" xmlns="http://www.w3.org/2000/svg">
<path d="M35.625 91.6667C33.6806 91.6667 31.9792 91.0764 30.5208 89.8958C29.0625 88.7153 28.0903 87.1875 27.6042 85.3125L22.9167 66.6667H77.0833L72.3958 85.3125C71.9097 87.1875 70.9375 88.7153 69.4792 89.8958C68.0208 91.0764 66.3194 91.6667 64.375 91.6667H35.625ZM50 33.3333C50 26.3889 52.4306 20.4861 57.2917 15.625C62.1528 10.7639 68.0556 8.33334 75 8.33334C75 14.5833 73.0208 20 69.0625 24.5833C65.1042 29.1667 60.1389 31.9444 54.1667 32.9167V41.6667H87.5V54.1667C87.5 56.4583 86.684 58.4201 85.0521 60.0521C83.4201 61.684 81.4583 62.5 79.1667 62.5H20.8333C18.5417 62.5 16.5799 61.684 14.9479 60.0521C13.316 58.4201 12.5 56.4583 12.5 54.1667V41.6667H45.8333V32.9167C39.8611 31.9444 34.8958 29.1667 30.9375 24.5833C26.9792 20 25 14.5833 25 8.33334C31.9444 8.33334 37.8472 10.7639 42.7083 15.625C47.5694 20.4861 50 26.3889 50 33.3333Z" fill="#288186"/>
</svg>
