<svg width="100" height="100" viewBox="0 0 100 100" fill="none" xmlns="http://www.w3.org/2000/svg">
<g clip-path="url(#clip0_346_10507)">
<path d="M52.0833 49.7917C54.0972 47.5694 55.6424 45.0347 56.7187 42.1875C57.7951 39.3403 58.3333 36.3889 58.3333 33.3333C58.3333 30.2778 57.7951 27.3264 56.7187 24.4792C55.6424 21.6319 54.0972 19.0972 52.0833 16.875C56.25 17.4306 59.7222 19.2708 62.5 22.3958C65.2778 25.5208 66.6667 29.1667 66.6667 33.3333C66.6667 37.5 65.2778 41.1458 62.5 44.2708C59.7222 47.3958 56.25 49.2361 52.0833 49.7917ZM75 83.3333V70.8333C75 68.3333 74.4444 65.9549 73.3333 63.6979C72.2222 61.441 70.7639 59.4444 68.9583 57.7083C72.5 58.9583 75.7812 60.5729 78.8021 62.5521C81.8229 64.5312 83.3333 67.2917 83.3333 70.8333V83.3333H75ZM83.3333 54.1667V45.8333H75V37.5H83.3333V29.1667H91.6667V37.5H100V45.8333H91.6667V54.1667H83.3333ZM33.3333 50C28.75 50 24.8264 48.3681 21.5625 45.1042C18.2986 41.8403 16.6667 37.9167 16.6667 33.3333C16.6667 28.75 18.2986 24.8264 21.5625 21.5625C24.8264 18.2986 28.75 16.6667 33.3333 16.6667C37.9167 16.6667 41.8403 18.2986 45.1042 21.5625C48.3681 24.8264 50 28.75 50 33.3333C50 37.9167 48.3681 41.8403 45.1042 45.1042C41.8403 48.3681 37.9167 50 33.3333 50ZM0 83.3333V71.6667C0 69.3056 0.607639 67.1354 1.82292 65.1562C3.03819 63.1771 4.65278 61.6667 6.66667 60.625C10.9722 58.4722 15.3472 56.8576 19.7917 55.7812C24.2361 54.7049 28.75 54.1667 33.3333 54.1667C37.9167 54.1667 42.4306 54.7049 46.875 55.7812C51.3194 56.8576 55.6944 58.4722 60 60.625C62.0139 61.6667 63.6285 63.1771 64.8437 65.1562C66.059 67.1354 66.6667 69.3056 66.6667 71.6667V83.3333H0Z" fill="#288186"/>
</g>
<defs>
<clipPath id="clip0_346_10507">
<rect width="100" height="100" fill="white"/>
</clipPath>
</defs>
</svg>
