<svg width="284" height="55" viewBox="0 0 284 55" fill="none" xmlns="http://www.w3.org/2000/svg">
<path fill-rule="evenodd" clip-rule="evenodd" d="M23.3138 10.3475C24.8106 10.376 26.5391 10.8646 28.4994 11.8133C30.41 12.738 31.8059 13.7616 32.6873 14.8841C33.5687 16.0066 34.0588 17.2144 34.1576 18.5075C34.2492 19.8155 34.0641 21.2002 33.6025 22.6616C33.5543 22.814 33.5044 22.9672 33.4528 23.1213C33.0137 24.4317 31.5065 24.9894 30.2626 24.3874C29.1104 23.8298 28.6644 22.4842 28.9025 21.2265C28.9182 21.1434 28.9318 21.0624 28.9432 20.9836C29.0822 20.0619 28.9101 19.301 28.4268 18.7008C27.9364 18.1155 27.1289 17.5507 26.0045 17.0066C24.9 16.472 23.9213 16.1723 23.0684 16.1075C22.2182 16.0623 21.4287 16.3487 20.6998 16.9666C19.9638 17.5993 19.2331 18.665 18.5078 20.1636L14.8544 27.7125C14.8541 27.7131 14.8533 27.7134 14.8527 27.7131C14.852 27.7128 14.8513 27.713 14.851 27.7137L13.8857 29.7082C13.1603 31.2069 12.7779 32.4412 12.7384 33.411C12.7061 34.366 12.9714 35.1628 13.5342 35.8015C14.1142 36.4302 14.9565 37.0118 16.061 37.5463C17.1855 38.0905 18.1294 38.3734 18.8927 38.3948C19.6632 38.4015 20.3668 38.0643 21.0033 37.3835C21.0095 37.3769 21.0157 37.3704 21.0219 37.3638C21.8914 36.4352 23.2075 35.9523 24.3525 36.5065C25.6062 37.1133 26.1034 38.6568 25.3313 39.816C25.291 39.8765 25.2506 39.9366 25.2102 39.9963C24.3505 41.2651 23.3793 42.2694 22.2967 43.0091C21.2213 43.734 19.97 44.099 18.5428 44.1042C17.1156 44.1095 15.4468 43.6497 13.5362 42.7251C11.576 41.7764 10.1203 40.7239 9.16923 39.5677C8.23532 38.4015 7.69271 37.1499 7.54143 35.8131C7.39014 34.4762 7.52902 33.06 7.95806 31.5644C8.3871 30.0689 8.99301 28.5124 9.77577 26.8951L11.8982 22.5097C11.8985 22.5091 11.8992 22.5088 11.8998 22.5091C11.9005 22.5094 11.9012 22.5091 11.9015 22.5085L13.7516 18.6859C14.5343 17.0685 15.3791 15.6277 16.2857 14.3633C17.1924 13.0989 18.2169 12.1113 19.3592 11.4005C20.5015 10.6897 21.8197 10.3387 23.3138 10.3475Z" fill="#1D006E"/>
<path fill-rule="evenodd" clip-rule="evenodd" d="M33.0155 38.6983C31.5187 38.6698 29.7901 38.1812 27.8298 37.2325C25.9193 36.3078 24.5233 35.2842 23.6419 34.1618C22.7605 33.0393 22.2705 31.8314 22.1717 30.5383C22.0801 29.2303 22.2652 27.8456 22.7268 26.3842C22.7757 26.2294 22.8264 26.0737 22.8789 25.9172C23.3183 24.6072 24.8251 24.0497 26.0688 24.6516C27.2212 25.2093 27.6674 26.5553 27.428 27.813C27.4118 27.8983 27.3978 27.9814 27.3861 28.0622C27.2471 28.9839 27.4192 29.7448 27.9024 30.345C28.3929 30.9303 29.2003 31.4951 30.3248 32.0392C31.4293 32.5738 32.408 32.8735 33.2609 32.9383C34.111 32.9835 34.9005 32.6971 35.6294 32.0792C36.3655 31.4465 37.0962 30.3808 37.8215 28.8822L41.4753 21.3325C41.4754 21.3323 41.4756 21.3322 41.4758 21.3323C41.476 21.3324 41.4763 21.3323 41.4764 21.3321L42.4436 19.3337C43.1689 17.835 43.5513 16.6007 43.5908 15.6309C43.6231 14.6759 43.3579 13.8791 42.795 13.2404C42.215 12.6117 41.3727 12.0301 40.2682 11.4956C39.1438 10.9514 38.1999 10.6685 37.4365 10.6471C36.666 10.6404 35.9625 10.9776 35.3259 11.6584C35.3205 11.6642 35.315 11.67 35.3096 11.6758C34.4396 12.6037 33.1237 13.0866 31.9788 12.5324C30.7249 11.9256 30.2277 10.3818 31.0001 9.22262C31.0397 9.16323 31.0793 9.10421 31.1191 9.04556C31.9788 7.77676 32.9499 6.7725 34.0325 6.03279C35.1079 5.30792 36.3592 4.94288 37.7864 4.93767C39.2136 4.93245 40.8824 5.39216 42.793 6.3168C44.7533 7.26553 46.2089 8.318 47.16 9.4742C48.0939 10.6404 48.6365 11.892 48.7878 13.2289C48.9391 14.5657 48.8002 15.9819 48.3712 17.4775C47.9421 18.973 47.3362 20.5295 46.5535 22.1468L44.4307 26.533C44.4306 26.5332 44.4304 26.5333 44.4302 26.5332C44.43 26.5331 44.4297 26.5331 44.4296 26.5333L42.5777 30.3599C41.7949 31.9773 40.9502 33.4182 40.0435 34.6825C39.1369 35.9469 38.1124 36.9345 36.9701 37.6453C35.8278 38.3561 34.5096 38.7071 33.0155 38.6983Z" fill="#288186"/>
<path d="M268.119 40.7283L268.119 33.4762L269.902 31.8802L278.545 42.5347L278.546 42.5356C279.033 43.1332 279.658 43.4751 280.404 43.5174C281.162 43.5901 281.854 43.3757 282.453 42.8903L282.456 42.8882C283.069 42.385 283.441 41.7669 283.486 41.0381C283.56 40.3037 283.339 39.6291 282.856 39.037L274.019 28.1933L280.7 22.2106L280.7 22.2106L280.707 22.2041C281.259 21.6908 281.581 21.0732 281.62 20.362C281.66 19.645 281.394 19.0011 280.88 18.4482C280.387 17.8852 279.762 17.5707 279.027 17.532C278.308 17.4924 277.662 17.7578 277.107 18.2728L268.12 26.3208L268.12 8.33415C268.12 7.535 267.861 6.84999 267.313 6.33494C266.796 5.78812 266.11 5.53125 265.31 5.53125C264.502 5.53125 263.804 5.79211 263.26 6.33514C262.739 6.85419 262.5 7.53973 262.5 8.33415L262.5 40.7283C262.5 41.5238 262.739 42.216 263.247 42.7611L263.259 42.7746L263.273 42.7872C263.819 43.2931 264.513 43.5312 265.31 43.5312C266.105 43.5312 266.792 43.2933 267.313 42.7744C267.857 42.2312 268.119 41.5346 268.119 40.7283Z" fill="#288186" stroke="#288186"/>
<path d="M239.095 41.8932L239.095 41.8932L239.103 41.8975C241.187 42.9908 243.55 43.5312 246.179 43.5312C247.657 43.5312 249.19 43.2652 250.774 42.7406C252.386 42.2171 253.749 41.5337 254.851 40.6817C255.476 40.2152 255.83 39.6018 255.788 38.8586C255.747 38.1475 255.379 37.5346 254.782 37.0214L254.782 37.0214L254.774 37.0148C254.273 36.6016 253.674 36.4171 253.009 36.4502C252.377 36.4531 251.788 36.656 251.252 37.0388L251.252 37.0388L251.248 37.0419C250.684 37.4541 249.916 37.8392 248.929 38.1891C247.991 38.5029 247.075 38.6574 246.179 38.6574C244.495 38.6574 243.023 38.2983 241.751 37.5938C240.469 36.8844 239.471 35.9249 238.747 34.7119C238.363 34.0686 238.08 33.3754 237.899 32.6304H254.873C255.594 32.6304 256.227 32.4164 256.733 31.9616C256.738 31.9572 256.743 31.9526 256.747 31.948C257.247 31.4614 257.5 30.8508 257.5 30.1484C257.5 27.7121 257.025 25.5459 256.06 23.6633C255.124 21.7482 253.748 20.2498 251.939 19.1791C250.121 18.0731 247.963 17.5312 245.485 17.5312C242.974 17.5312 240.729 18.0891 238.765 19.2179C236.805 20.3138 235.261 21.8504 234.138 23.8196L234.138 23.8196L234.136 23.822C233.04 25.7695 232.5 28.0186 232.5 30.5538C232.5 33.0652 233.074 35.3165 234.233 37.2933L234.233 37.2933L234.238 37.3015C235.426 39.2399 237.048 40.7715 239.095 41.8932ZM252.151 28.0267H237.962C238.112 27.4384 238.319 26.8843 238.58 26.3634L238.58 26.3635L238.582 26.3594C239.188 25.1228 240.062 24.1598 241.211 23.4597C242.384 22.764 243.801 22.4051 245.485 22.4051C246.951 22.4051 248.163 22.7327 249.146 23.3623C250.145 24.0012 250.916 24.8758 251.464 25.9981L251.464 25.9982L251.466 26.0027C251.776 26.6234 252.005 27.2975 252.151 28.0267Z" fill="#288186" stroke="#288186" stroke-linejoin="round"/>
<path d="M211.095 41.8932L211.095 41.8932L211.103 41.8975C213.187 42.9908 215.55 43.5312 218.179 43.5312C219.657 43.5312 221.19 43.2652 222.774 42.7406C224.386 42.2171 225.749 41.5337 226.851 40.6817C227.476 40.2152 227.83 39.6018 227.788 38.8586C227.747 38.1475 227.379 37.5346 226.782 37.0214L226.782 37.0214L226.774 37.0148C226.273 36.6016 225.674 36.4171 225.009 36.4502C224.377 36.4531 223.788 36.656 223.252 37.0388L223.252 37.0388L223.248 37.0419C222.684 37.4541 221.916 37.8392 220.929 38.1891C219.991 38.5029 219.075 38.6574 218.179 38.6574C216.495 38.6574 215.023 38.2983 213.751 37.5938C212.469 36.8844 211.471 35.9249 210.747 34.7119C210.363 34.0686 210.08 33.3754 209.899 32.6304H226.873C227.594 32.6304 228.227 32.4164 228.733 31.9616C228.738 31.9572 228.743 31.9526 228.747 31.948C229.247 31.4614 229.5 30.8508 229.5 30.1484C229.5 27.7121 229.025 25.5459 228.06 23.6633C227.124 21.7482 225.748 20.2498 223.939 19.1791C222.121 18.0731 219.963 17.5312 217.485 17.5312C214.974 17.5312 212.729 18.0891 210.765 19.2179C208.805 20.3138 207.261 21.8504 206.138 23.8196L206.138 23.8196L206.136 23.822C205.04 25.7695 204.5 28.0186 204.5 30.5538C204.5 33.0652 205.074 35.3165 206.233 37.2933L206.233 37.2933L206.238 37.3015C207.426 39.2399 209.048 40.7715 211.095 41.8932ZM224.151 28.0267H209.962C210.112 27.4384 210.319 26.8843 210.58 26.3634L210.58 26.3635L210.582 26.3594C211.188 25.1228 212.062 24.1598 213.211 23.4597C214.384 22.764 215.801 22.4051 217.485 22.4051C218.951 22.4051 220.163 22.7327 221.146 23.3623C222.145 24.0012 222.916 24.8758 223.464 25.9981L223.464 25.9982L223.466 26.0027C223.776 26.6234 224.005 27.2975 224.151 28.0267Z" fill="#288186" stroke="#288186" stroke-linejoin="round"/>
<path d="M173.5 30.5966L173.5 30.5966V30.6032V51.2249C173.5 52.0112 173.766 52.6887 174.314 53.2139C174.885 53.761 175.594 54.0312 176.406 54.0312C177.24 54.0312 177.957 53.767 178.504 53.2079C179.048 52.6836 179.313 52.0082 179.313 51.2249V40.2575C180.264 41.1562 181.346 41.9018 182.557 42.4938L182.557 42.4939L182.568 42.4989C184.211 43.2547 185.997 43.63 187.92 43.63C190.299 43.63 192.449 43.0668 194.357 41.9317L194.357 41.9317L194.362 41.9285C196.26 40.7683 197.752 39.213 198.832 37.2689C199.947 35.2882 200.5 33.0622 200.5 30.6032C200.5 28.137 199.896 25.9057 198.682 23.9229C197.504 21.9493 195.9 20.3962 193.875 19.269C191.842 18.1068 189.538 17.5312 186.976 17.5312C184.445 17.5312 182.157 18.1073 180.124 19.269C178.099 20.3966 176.494 21.9506 175.316 23.9255C174.135 25.9062 173.532 28.134 173.5 30.5966ZM193.811 34.693L193.809 34.6966C193.129 35.8866 192.2 36.8337 191.017 37.5433C189.843 38.2173 188.501 38.5599 186.976 38.5599C185.486 38.5599 184.142 38.2186 182.933 37.542C181.751 36.8329 180.824 35.887 180.145 34.6988C179.467 33.4831 179.124 32.1216 179.124 30.6032C179.124 29.0519 179.468 27.6921 180.143 26.5099L180.144 26.5099L180.146 26.5055C180.826 25.2863 181.753 24.3427 182.931 23.6653L182.931 23.6653L182.934 23.6636C184.144 22.957 185.487 22.6013 186.976 22.6013C188.499 22.6013 189.84 22.9579 191.013 23.6608L191.013 23.6609L191.021 23.6653C192.199 24.3427 193.126 25.2863 193.806 26.5055L193.81 26.5117L193.813 26.5179C194.518 27.6988 194.875 29.0557 194.875 30.6032C194.875 32.1187 194.518 33.478 193.811 34.693Z" fill="#288186" stroke="#288186"/>
<path d="M141.036 33.4714L141.042 33.4625C141.466 32.7685 142.151 32.3511 143.021 32.176C143.699 32.0268 144.357 32.1434 144.973 32.5017C145.622 32.8302 146.109 33.341 146.428 34.014C146.755 34.6951 147.295 35.3416 148.074 35.9479C148.882 36.5534 149.859 37.0509 151.011 37.4349C152.153 37.8158 153.357 38.0073 154.625 38.0073C156.044 38.0073 157.333 37.7856 158.497 37.3491L158.501 37.3477L158.501 37.3477C159.692 36.9119 160.629 36.2959 161.333 35.5095C162.011 34.7206 162.359 33.7523 162.359 32.5732C162.359 31.097 161.78 29.7634 160.573 28.5568L160.569 28.5525L160.569 28.5525C159.431 27.3866 157.484 26.6104 154.62 26.3087C150.749 25.9338 147.652 24.7889 145.375 22.8325C143.092 20.8712 141.935 18.4196 141.935 15.5072C141.935 13.3835 142.532 11.5519 143.747 10.0419C144.945 8.55269 146.556 7.43104 148.559 6.66801L148.561 6.66708L148.561 6.66708C150.587 5.90728 152.825 5.53125 155.269 5.53125C157.183 5.53125 158.871 5.79779 160.32 6.3449C161.783 6.88581 163.063 7.6367 164.155 8.60033C165.237 9.55441 166.172 10.681 166.963 11.9769C167.434 12.7183 167.651 13.4779 167.541 14.2366C167.46 14.9744 167.078 15.5613 166.442 15.973L166.438 15.976L166.438 15.976C165.726 16.4252 164.944 16.5177 164.133 16.2597C163.346 16.0095 162.737 15.534 162.334 14.8378L162.329 14.8288L162.329 14.8288C161.864 13.9863 161.302 13.2822 160.644 12.7106C159.99 12.1415 159.218 11.6965 158.321 11.3785L158.315 11.3761L158.308 11.3735C157.428 11.0328 156.372 10.8552 155.131 10.8552H155.124L155.124 10.8552C152.92 10.8254 151.113 11.2428 149.677 12.0758L149.671 12.0796L149.671 12.0795C148.972 12.4711 148.467 12.9588 148.135 13.5369C147.802 14.1157 147.627 14.8125 147.627 15.6452C147.627 16.4746 147.832 17.2801 148.252 18.0675C148.676 18.7775 149.455 19.4386 150.656 20.0248C151.868 20.6019 153.642 21.0231 156.009 21.2659C159.729 21.6411 162.679 22.7878 164.805 24.7514C166.975 26.6961 168.051 29.2745 168.051 32.4352C168.051 34.2529 167.668 35.8582 166.883 37.2334C166.141 38.5867 165.125 39.7296 163.842 40.6601L163.84 40.6614C162.592 41.5577 161.157 42.2255 159.543 42.669M141.036 33.4714L159.541 42.6694C159.541 42.6693 159.542 42.6691 159.543 42.669M141.036 33.4714L141.031 33.4804C140.637 34.1906 140.651 34.9576 141.012 35.7225M141.036 33.4714L141.012 35.7225M159.543 42.669C157.964 43.1109 156.324 43.3312 154.625 43.3312C152.609 43.3312 150.683 43.0161 148.85 42.3839C147.019 41.7526 145.415 40.8653 144.046 39.7186C142.675 38.5714 141.66 37.2394 141.012 35.7225M159.543 42.669L141.012 35.7225" fill="#288186" stroke="#288186"/>
<path d="M100.095 41.8932L100.095 41.8932L100.103 41.8975C102.187 42.9908 104.55 43.5312 107.179 43.5312C108.657 43.5312 110.19 43.2652 111.774 42.7406C113.386 42.2171 114.749 41.5337 115.851 40.6817C116.476 40.2152 116.83 39.6018 116.788 38.8586C116.747 38.1475 116.379 37.5346 115.782 37.0214L115.782 37.0214L115.774 37.0148C115.273 36.6016 114.674 36.4171 114.009 36.4502C113.377 36.4531 112.788 36.656 112.252 37.0388L112.252 37.0388L112.248 37.0419C111.684 37.4541 110.916 37.8392 109.929 38.1891C108.991 38.5029 108.075 38.6574 107.179 38.6574C105.495 38.6574 104.023 38.2983 102.751 37.5938C101.469 36.8844 100.471 35.9249 99.747 34.7119C99.363 34.0686 99.0799 33.3754 98.8992 32.6304H115.873C116.594 32.6304 117.227 32.4164 117.733 31.9616C117.734 31.9603 117.736 31.9589 117.737 31.9576C117.741 31.9544 117.744 31.9512 117.747 31.948C118.247 31.4614 118.5 30.8508 118.5 30.1484C118.5 27.7121 118.025 25.5459 117.06 23.6633C116.124 21.7482 114.748 20.2498 112.939 19.1791C111.121 18.0731 108.963 17.5312 106.485 17.5312C103.974 17.5312 101.729 18.0891 99.7647 19.2179C97.8051 20.3138 96.2608 21.8504 95.1377 23.8196L95.1377 23.8196L95.1363 23.822C94.0399 25.7695 93.4998 28.0186 93.4998 30.5538C93.4998 33.0652 94.0736 35.3165 95.2332 37.2933L95.2331 37.2933L95.2381 37.3015C96.4257 39.2399 98.0477 40.7715 100.095 41.8932ZM113.151 28.0267H98.9621C99.1124 27.4384 99.3186 26.8843 99.5797 26.3634L99.5797 26.3635L99.5817 26.3594C100.188 25.1228 101.062 24.1598 102.211 23.4597C103.384 22.764 104.801 22.4051 106.485 22.4051C107.951 22.4051 109.163 22.7327 110.146 23.3623C111.145 24.0012 111.916 24.8758 112.464 25.9981L112.464 25.9982L112.466 26.0027C112.776 26.6234 113.005 27.2975 113.151 28.0267Z" fill="#1D006E" stroke="#1D006E" stroke-linejoin="round"/>
<path d="M58.2738 42.6565L58.2796 42.6629L58.2856 42.6691C58.8424 43.2421 59.5405 43.5312 60.3474 43.5312C61.175 43.5312 61.881 43.2483 62.4151 42.6629C62.9672 42.0917 63.241 41.3823 63.241 40.5677V16.2332L82.4071 42.4734L82.407 42.4734L82.412 42.4799C82.6781 42.8322 83.0198 43.1039 83.4276 43.2946L83.4518 43.306L83.4772 43.3147C83.8843 43.4544 84.2775 43.5312 84.6521 43.5312C85.4827 43.5312 86.1909 43.2463 86.7257 42.6565C87.2463 42.0825 87.4998 41.3751 87.4998 40.5677V8.49476C87.4998 7.66619 87.252 6.95073 86.7199 6.39965C86.1858 5.81419 85.4798 5.53125 84.6521 5.53125C83.8481 5.53125 83.1521 5.81836 82.5963 6.38733C82.0282 6.93638 81.7585 7.6559 81.7585 8.49476V32.8767L62.5924 6.63646L62.5843 6.62538L62.5756 6.61475C61.9954 5.90564 61.2427 5.53125 60.3474 5.53125C59.5405 5.53125 58.8424 5.82042 58.2856 6.39344L58.6442 6.74188L58.2856 6.39344C57.7493 6.94536 57.4998 7.66308 57.4998 8.49476V40.5677C57.4998 41.3751 57.7533 42.0825 58.2738 42.6565Z" fill="#1D006E" stroke="#1D006E"/>
<rect x="126" y="5.03125" width="6.5" height="39" rx="3.25" fill="#1D006E"/>
<rect x="137.5" y="17.0312" width="6.1579" height="16.5" rx="3.07895" transform="rotate(90 137.5 17.0312)" fill="#1D006E"/>
</svg>
