<svg width="100" height="100" viewBox="0 0 100 100" fill="none" xmlns="http://www.w3.org/2000/svg">
<path d="M4.1665 83.3333V66.6667C4.1665 64.3056 4.98248 62.3264 6.61442 60.7292C8.24636 59.1319 10.2082 58.3333 12.4998 58.3333H26.1457C27.5346 58.3333 28.854 58.6806 30.104 59.375C31.354 60.0694 32.3609 61.0069 33.1248 62.1875C35.1387 64.8958 37.6214 67.0139 40.5728 68.5417C43.5241 70.0694 46.6665 70.8333 49.9998 70.8333C53.4026 70.8333 56.5797 70.0694 59.5311 68.5417C62.4825 67.0139 64.9304 64.8958 66.8748 62.1875C67.7776 61.0069 68.8366 60.0694 70.0519 59.375C71.2672 58.6806 72.5346 58.3333 73.854 58.3333H87.4998C89.8609 58.3333 91.8401 59.1319 93.4373 60.7292C95.0346 62.3264 95.8332 64.3056 95.8332 66.6667V83.3333H66.6665V73.8542C64.2359 75.5903 61.6144 76.9097 58.8019 77.8125C55.9894 78.7153 53.0554 79.1667 49.9998 79.1667C47.0137 79.1667 44.0971 78.6979 41.2498 77.7604C38.4026 76.8229 35.7637 75.4861 33.3332 73.75V83.3333H4.1665ZM49.9998 66.6667C47.3609 66.6667 44.8609 66.059 42.4998 64.8438C40.1387 63.6285 38.1596 61.9444 36.5623 59.7917C35.3818 58.0556 33.9061 56.684 32.1353 55.6771C30.3644 54.6701 28.4373 54.1667 26.354 54.1667C27.8818 51.5972 31.1109 49.566 36.0415 48.0729C40.9721 46.5799 45.6248 45.8333 49.9998 45.8333C54.3748 45.8333 59.0276 46.5799 63.9582 48.0729C68.8887 49.566 72.1179 51.5972 73.6457 54.1667C71.6318 54.1667 69.7221 54.6701 67.9165 55.6771C66.1109 56.684 64.6179 58.0556 63.4373 59.7917C61.9096 62.0139 59.9651 63.7153 57.604 64.8958C55.2429 66.0764 52.7082 66.6667 49.9998 66.6667ZM16.6665 54.1667C13.1943 54.1667 10.2429 52.9514 7.81234 50.5208C5.38178 48.0903 4.1665 45.1389 4.1665 41.6667C4.1665 38.125 5.38178 35.1563 7.81234 32.7604C10.2429 30.3646 13.1943 29.1667 16.6665 29.1667C20.2082 29.1667 23.1769 30.3646 25.5728 32.7604C27.9686 35.1563 29.1665 38.125 29.1665 41.6667C29.1665 45.1389 27.9686 48.0903 25.5728 50.5208C23.1769 52.9514 20.2082 54.1667 16.6665 54.1667ZM83.3332 54.1667C79.8609 54.1667 76.9096 52.9514 74.479 50.5208C72.0484 48.0903 70.8332 45.1389 70.8332 41.6667C70.8332 38.125 72.0484 35.1563 74.479 32.7604C76.9096 30.3646 79.8609 29.1667 83.3332 29.1667C86.8748 29.1667 89.8436 30.3646 92.2394 32.7604C94.6353 35.1563 95.8332 38.125 95.8332 41.6667C95.8332 45.1389 94.6353 48.0903 92.2394 50.5208C89.8436 52.9514 86.8748 54.1667 83.3332 54.1667ZM49.9998 41.6667C46.5276 41.6667 43.5762 40.4514 41.1457 38.0208C38.7151 35.5903 37.4998 32.6389 37.4998 29.1667C37.4998 25.625 38.7151 22.6563 41.1457 20.2604C43.5762 17.8646 46.5276 16.6667 49.9998 16.6667C53.5415 16.6667 56.5103 17.8646 58.9061 20.2604C61.3019 22.6563 62.4998 25.625 62.4998 29.1667C62.4998 32.6389 61.3019 35.5903 58.9061 38.0208C56.5103 40.4514 53.5415 41.6667 49.9998 41.6667Z" fill="#288186"/>
</svg>
