<svg width="100" height="89" viewBox="0 0 100 89" fill="none" xmlns="http://www.w3.org/2000/svg">
<path fill-rule="evenodd" clip-rule="evenodd" d="M75.554 16.4585C76.0263 12.0746 77.0943 4.7762 78.6095 1.56499C80.5237 -2.49189 67.8777 1.61968 61.3656 10.6509C57.9918 9.89727 54.4517 9.49609 50.8021 9.49609C33.6554 9.49609 18.9251 18.3516 12.5138 31.0107C11.0497 30.1377 9.75056 29.041 8.92823 27.8064C8.25893 26.8015 7.93026 25.7548 7.99319 24.5639C8.03958 23.6859 8.30954 22.5337 9.06519 21.0852C10.0251 19.2453 9.81593 16.6677 7.97442 15.2478C6.2593 13.9254 3.66683 14.2032 2.45332 16.3395C0.97546 18.9411 0.155461 21.5363 0.0200146 24.0996C-0.155967 27.4299 0.844742 30.2996 2.384 32.6106C4.3126 35.5061 7.10228 37.572 9.72793 38.947C9.30928 40.9764 9.09091 43.0648 9.09091 45.1969C9.09091 55.332 14.0252 64.4806 21.9498 70.979L19.7173 77.0508C18.5737 80.1609 20.1297 83.7074 23.1926 84.972L31.3655 88.3465C34.4284 89.6112 37.8384 88.1151 38.9819 85.005L40.8668 79.8788C44.0509 80.5447 47.3783 80.8978 50.8021 80.8978C53.2232 80.8978 55.5961 80.7213 57.9042 80.3824L59.6039 85.005C60.7474 88.1151 64.1574 89.6112 67.2203 88.3465L75.3932 84.972C78.4561 83.7074 80.0121 80.1609 78.8685 77.0508L77.2956 72.7728C82.3765 69.1926 86.4508 64.6037 89.1002 59.364H94C97.3137 59.364 100 56.6778 100 53.3641V41.5635C100 38.2498 97.3137 35.5635 94 35.5635H90.9771C88.4439 27.8081 82.9277 21.1186 75.554 16.4585ZM77.54 32.7295C77.54 34.9203 75.8641 36.6963 73.7967 36.6963C71.7293 36.6963 70.0534 34.9203 70.0534 32.7295C70.0534 30.5388 71.7293 28.7628 73.7967 28.7628C75.8641 28.7628 77.54 30.5388 77.54 32.7295ZM48.1284 27.2012H50.2674V29.963C51.6646 30.0566 52.9124 30.3731 54.0107 30.9124C55.3476 31.5564 56.3969 32.4536 57.1585 33.6041C57.9201 34.7461 58.3131 36.0598 58.3374 37.5451H53.9986C53.8851 36.4204 53.4071 35.5446 52.5644 34.9178C51.9396 34.4485 51.1739 34.1549 50.2674 34.037V41.3767L51.3612 41.6665C52.3011 41.8983 53.2045 42.2117 54.0715 42.6066C54.9465 43.0016 55.7284 43.4996 56.4171 44.1006C57.1139 44.7016 57.6649 45.4271 58.07 46.2772C58.4751 47.1272 58.6777 48.1232 58.6777 49.2651C58.6777 50.8106 58.305 52.1715 57.5596 53.3478C56.8141 54.5155 55.7365 55.4299 54.3267 56.091C53.1737 56.6278 51.8206 56.9438 50.2674 57.039V60.0686H48.1284V57.0335C46.6505 56.9336 45.3379 56.628 44.1906 56.1168C42.7727 55.4814 41.6626 54.5541 40.8605 53.3349C40.0665 52.1157 39.637 50.6303 39.5722 48.8787H44.0083C44.0731 49.7975 44.3405 50.5616 44.8104 51.1712C45.2804 51.7808 45.8921 52.2359 46.6456 52.5364C47.1071 52.7185 47.6014 52.8454 48.1284 52.9172V45.141L46.8644 44.7961C44.8145 44.238 43.194 43.3923 42.0029 42.2589C40.82 41.1169 40.2285 39.6015 40.2285 37.7126C40.2285 36.1585 40.6255 34.7976 41.4196 33.6299C42.2217 32.4622 43.3115 31.5564 44.6889 30.9124C45.731 30.4187 46.8775 30.1118 48.1284 29.9916V27.2012ZM46.8887 34.4284C47.2609 34.2621 47.6742 34.1417 48.1284 34.0675V40.7889C47.9211 40.7215 47.7145 40.6492 47.5085 40.5717C47.0062 40.3828 46.5484 40.151 46.1352 39.8763C45.7219 39.5929 45.3938 39.2495 45.1507 38.8459C44.9157 38.4424 44.7983 37.9659 44.7983 37.4164C44.8064 36.7552 44.9887 36.1671 45.3452 35.6519C45.7017 35.1368 46.2162 34.7289 46.8887 34.4284ZM50.2674 52.9196V45.7323C50.9239 45.9317 51.5113 46.1519 52.0297 46.3931C52.7022 46.6936 53.2248 47.0714 53.5975 47.5264C53.9702 47.9729 54.1606 48.5396 54.1687 49.2265C54.1606 49.9821 53.9459 50.6432 53.5246 51.2099C53.1032 51.768 52.5199 52.2058 51.7744 52.5235C51.3186 52.7146 50.8162 52.8467 50.2674 52.9196Z" fill="#288186"/>
</svg>
