<svg width="100" height="96" viewBox="0 0 100 96" fill="none" xmlns="http://www.w3.org/2000/svg">
<path fill-rule="evenodd" clip-rule="evenodd" d="M40.7799 0H49.1451V6.51959C71.4764 8.86973 88.8794 27.7591 88.8794 50.7131C88.8794 75.2565 68.983 95.1528 44.4397 95.1528C19.8963 95.1528 0 75.2565 0 50.7131C0 27.402 17.9486 8.28306 40.7799 6.42197V0ZM100 17.575L86.0335 2.00959L78.2508 8.99285L83.139 14.4407L79.2477 17.9323L83.4377 22.6019L87.329 19.1103L92.2173 24.5582L100 17.575ZM42.8712 19.8676C42.8712 18.7127 43.8075 17.7764 44.9625 17.7764C46.1175 17.7764 47.0538 18.7127 47.0538 19.8676V45.32C49.4905 46.1813 51.2364 48.5052 51.2364 51.2368C51.2364 53.9685 49.4905 56.2924 47.0538 57.1537V64.8301C47.0538 65.9851 46.1175 66.9214 44.9625 66.9214C43.8075 66.9214 42.8712 65.9851 42.8712 64.8301V57.1537C40.4345 56.2924 38.6887 53.9685 38.6887 51.2368C38.6887 48.5052 40.4345 46.1813 42.8712 45.32V19.8676Z" fill="#288186"/>
</svg>
