<svg width="100" height="100" viewBox="0 0 100 100" fill="none" xmlns="http://www.w3.org/2000/svg">
<path d="M4.29482 4.496L2 6.896L4.10359 10.928C9.17131 20.528 9.93626 21.392 12.9004 21.008C15.3865 20.624 17.1076 22.064 30.2072 35.216C44.1673 49.328 44.741 50 43.2112 51.728C42.3506 52.688 41.5857 54.128 41.5857 54.992C41.5857 56.912 44.6454 59.6 47.0359 59.6C49.4263 59.6 53.0598 63.44 53.0598 65.936C53.0598 67.088 58.988 73.712 68.1673 82.928L83.1793 98H87.7689C91.5936 98 92.9323 97.52 95.2271 95.216C97.5219 92.912 98 91.568 98 87.824V83.216L83.4661 68.528C75.1474 60.08 67.7849 53.552 66.4462 53.168C63.3865 52.496 59.5618 49.04 60.1355 47.504C60.8048 45.872 57.0757 41.36 55.259 41.36C54.3984 41.36 52.8685 42.128 51.9124 42.992C50.1912 44.528 49.5219 43.952 35.5618 30.032C22.8446 17.264 21.0279 15.056 21.0279 12.368C21.0279 9.68 20.4542 9.008 14.8127 5.648C11.3705 3.632 8.11952 2 7.54582 2C6.97211 2 5.53785 3.056 4.29482 4.496ZM74.0956 72.56C80.1195 78.608 84.7092 83.888 84.3267 84.272C83.5618 84.944 61.6653 63.632 61.6653 62.288C61.6653 60.464 63.8645 62.192 74.0956 72.56Z" fill="#288186"/>
<path d="M64.5345 4.49797C52.9648 9.87397 48.4707 18.418 52.4867 27.442C53.7297 30.226 53.6341 30.514 50.3831 33.97C47.2277 37.234 47.0365 37.618 48.4707 39.058C49.6181 40.21 50.3831 40.402 51.913 39.538C54.9727 37.906 56.5982 38.29 59.8492 41.17C61.8572 42.994 62.909 44.722 62.909 46.546C62.909 49.906 65.1082 50.77 67.5942 48.37C69.411 46.546 69.7934 46.45 73.905 47.794C80.5982 49.81 84.9966 48.658 89.8731 43.762C94.8452 38.866 98.0006 30.898 98.0006 23.506C98.0006 16.018 96.2795 15.73 89.4906 22.546C86.5265 25.522 83.658 27.922 83.1799 27.922C82.7018 27.922 79.8333 25.426 76.7735 22.45L71.2277 16.978L77.0604 11.026C84.5185 3.53797 84.2317 2.00197 75.8173 2.00197C71.4189 2.00197 68.3592 2.67397 64.5345 4.49797Z" fill="#288186"/>
<path d="M31.5462 52.8795C26.2872 58.2555 25.5223 58.6395 21.5063 58.6395C10.3191 58.7355 2.38281 67.1835 2.38281 78.9915C2.38281 85.1355 5.0601 90.2235 10.3191 94.5435C13.7613 97.3275 14.5262 97.5195 21.8888 97.5195C28.6776 97.5195 30.2075 97.2315 33.1717 95.2155C38.5262 91.4715 40.9167 87.1515 41.3948 80.4315C41.7772 74.8635 42.0641 74.1915 46.08 69.9675C50.8609 65.0715 51.0521 62.6715 46.7493 62.6715C44.9326 62.6715 43.2115 61.7115 41.3948 59.6955C38.5262 56.4315 38.1438 54.7995 39.7693 51.8235C40.7254 49.9035 39.578 47.1195 37.8569 47.1195C37.4744 47.1195 34.7015 49.7115 31.5462 52.8795ZM27.6258 72.9435C30.0163 75.4395 30.2075 76.2075 29.6338 79.6635C28.9645 83.7915 27.8171 84.8475 22.6537 85.9995C19.8808 86.5755 19.0203 86.2875 16.6298 83.9835C13.5701 81.0075 13.4744 80.7195 14.8131 75.7275C15.6736 72.8475 16.4386 71.8875 18.9246 71.2155C23.8011 69.7755 24.8529 69.9675 27.6258 72.9435Z" fill="#288186"/>
</svg>
