<svg width="100" height="100" viewBox="0 0 100 100" fill="none" xmlns="http://www.w3.org/2000/svg">
<path d="M45.7639 11.5999C45.5526 19.426 45.1302 21.3042 43.8627 21.3042C42.5952 21.3042 42.1727 19.6347 41.9615 13.6869C41.7502 9.61731 41.3277 6.17385 41.0109 6.17385C40.694 6.17385 38.8984 7.11297 36.8915 8.2608C33.1947 10.5564 29.0754 17.7564 29.0754 21.9303C29.0754 23.3912 28.1248 25.0607 26.8574 25.7912C25.1674 26.8346 24.8505 27.9825 25.0618 31.5303C25.3786 35.7042 25.4843 35.9129 29.6036 36.6433C35.096 37.5824 65.3042 37.5824 70.7966 36.6433C74.9159 35.9129 75.0215 35.7042 75.3384 31.5303C75.5496 27.9825 75.2327 26.8346 73.5428 25.7912C72.2753 25.0607 71.3247 23.3912 71.3247 21.9303C71.3247 17.7564 67.2054 10.5564 63.5086 8.2608C61.5017 7.11297 59.7061 6.17385 59.3893 6.17385C59.0724 6.17385 58.6499 9.61731 58.4387 13.6869C58.2274 19.6347 57.8049 21.3042 56.5374 21.3042C55.27 21.3042 54.8475 19.426 54.6362 11.5999L54.3194 1.99995H50.2001H46.0808L45.7639 11.5999Z" fill="#288186"/>
<path d="M29.8146 40.1915C28.3359 41.6524 29.0752 48.6436 30.9764 51.148C34.8845 56.4697 37.6307 63.3566 37.3138 66.8001C36.997 70.1392 36.4688 70.661 26.2234 75.5653C11.753 82.6609 9.00684 85.2696 7.63374 94.1391L7 98H50.1999H93.3997L92.766 94.1391C91.3929 85.2696 88.1186 82.0348 74.3875 75.774C61.7128 69.9305 60.7622 68.1566 65.304 58.661C66.5714 55.948 68.5783 52.4002 69.5289 50.8349C70.7964 49.061 71.3245 46.661 71.1132 44.0524C70.7964 40.5045 70.4795 40.0872 68.1558 40.2958C61.6071 40.8176 35.4126 40.6089 33.0889 40.0872C31.7158 39.7741 30.2371 39.7741 29.8146 40.1915Z" fill="#288186"/>
</svg>
